<svg width="24" height="25" viewBox="0 0 24 25" fill="none" xmlns="http://www.w3.org/2000/svg">
<g clip-path="url(#clip0_6_853)">
<path d="M22.5 24.5C22.5 24.5 18.9645 23.1087 16.1047 21.995H4.07775C2.655 21.995 1.5 20.7695 1.5 19.2598V3.233C1.5 1.72475 2.655 0.5 4.07775 0.5H19.9215C21.345 0.5 22.4993 1.724 22.4993 3.23375V17.0368L22.5 24.5ZM19.3958 15.5135C19.3396 15.4414 19.2691 15.3818 19.1886 15.3383C19.1082 15.2949 19.0196 15.2687 18.9285 15.2613C18.8375 15.2539 18.7458 15.2655 18.6594 15.2953C18.5731 15.3252 18.4938 15.3727 18.4268 15.4347C18.4043 15.4543 16.1655 17.4455 11.9992 17.4455C7.88475 17.4455 5.6115 15.4685 5.571 15.4325C5.50386 15.3707 5.42464 15.3236 5.33835 15.294C5.25206 15.2644 5.16057 15.253 5.06966 15.2605C4.97875 15.2681 4.89038 15.2944 4.81015 15.3378C4.72992 15.3812 4.65955 15.4408 4.6035 15.5128C4.48344 15.6625 4.42474 15.8523 4.43925 16.0438C4.45193 16.2342 4.53731 16.4125 4.67775 16.5417C4.78425 16.6378 7.3305 18.9042 11.9992 18.9042C16.6687 18.9042 19.215 16.6378 19.3215 16.5417C19.4617 16.4124 19.5468 16.2341 19.5592 16.0438C19.5738 15.8527 19.5154 15.6632 19.3958 15.5135Z" fill="white"/>
</g>
<defs>
<clipPath id="clip0_6_853">
<rect width="24" height="24" fill="white" transform="translate(0 0.5)"/>
</clipPath>
</defs>
</svg>
