<svg width="143" height="36" viewBox="0 0 143 36" fill="none" xmlns="http://www.w3.org/2000/svg">
<path fill-rule="evenodd" clip-rule="evenodd" d="M4.32432 10.7681C2.75818 14.2642 6.98877 19.1719 14.3243 24.7681C22.6319 29.6666 26.2847 30.1246 35.7115 23.1627C37.814 21.6099 39.7794 19.8491 41.3405 17.7528C43.6992 14.5856 44.5269 11.9948 42.9888 9.73984C40.9888 7.17186 39.043 7.68224 30.3243 9.73984C27.6091 10.3802 23.9888 11.1719 23.9888 11.1719C23.9888 11.1719 20.8546 10.4773 17.7279 9.73984C8.53584 7.57096 5.82434 7.41972 4.32432 10.7681Z" fill="#192636"/>
<path d="M69.623 25L69.6325 18.6065C69.6325 17.8655 69.4425 17.2892 69.0625 16.8775C68.6825 16.4595 68.1822 16.2505 67.5615 16.2505C67.1815 16.2505 66.8332 16.3392 66.5165 16.5165C66.2062 16.6875 65.9528 16.9472 65.7565 17.2955C65.5665 17.6375 65.4715 18.0682 65.4715 18.5875L64.512 18.103C64.4993 17.381 64.6513 16.7477 64.968 16.203C65.291 15.6583 65.728 15.2372 66.279 14.9395C66.83 14.6355 67.4475 14.4835 68.1315 14.4835C69.2398 14.4835 70.098 14.816 70.706 15.481C71.314 16.146 71.618 17.0295 71.618 18.1315L71.6085 25H69.623ZM57.3205 25V14.74H59.0875V17.704H59.3155V25H57.3205ZM63.4765 25L63.486 18.6445C63.486 17.8972 63.296 17.3113 62.916 16.887C62.5423 16.4627 62.0388 16.2505 61.4055 16.2505C60.7785 16.2505 60.2718 16.4658 59.8855 16.8965C59.5055 17.3272 59.3155 17.8908 59.3155 18.5875L58.3655 17.9795C58.3655 17.3082 58.527 16.7097 58.85 16.184C59.173 15.6583 59.61 15.2435 60.161 14.9395C60.712 14.6355 61.3358 14.4835 62.0325 14.4835C62.7608 14.4835 63.3815 14.6387 63.8945 14.949C64.4075 15.253 64.797 15.6805 65.063 16.2315C65.3353 16.7825 65.4715 17.4222 65.4715 18.1505L65.462 25H63.4765ZM78.4105 25.285C77.3845 25.285 76.4947 25.0538 75.741 24.5915C74.9873 24.1292 74.4047 23.4927 73.993 22.682C73.5877 21.865 73.385 20.9245 73.385 19.8605C73.385 18.7902 73.594 17.8497 74.012 17.039C74.43 16.222 75.0158 15.5887 75.7695 15.139C76.5232 14.683 77.4035 14.455 78.4105 14.455C79.4365 14.455 80.3263 14.6862 81.08 15.1485C81.8337 15.6108 82.4163 16.2473 82.828 17.058C83.2397 17.8687 83.4455 18.8028 83.4455 19.8605C83.4455 20.9308 83.2365 21.8745 82.8185 22.6915C82.4068 23.5022 81.8242 24.1387 81.0705 24.601C80.3168 25.057 79.4302 25.285 78.4105 25.285ZM78.4105 23.4135C79.3922 23.4135 80.1237 23.0842 80.605 22.4255C81.0927 21.7605 81.3365 20.9055 81.3365 19.8605C81.3365 18.7902 81.0895 17.9352 80.5955 17.2955C80.1078 16.6495 79.3795 16.3265 78.4105 16.3265C77.7455 16.3265 77.1977 16.4785 76.767 16.7825C76.3363 17.0802 76.0165 17.495 75.8075 18.027C75.5985 18.5527 75.494 19.1638 75.494 19.8605C75.494 20.9372 75.741 21.7985 76.235 22.4445C76.729 23.0905 77.4542 23.4135 78.4105 23.4135ZM89.9886 25.285C88.9626 25.285 88.0728 25.0538 87.3191 24.5915C86.5655 24.1292 85.9828 23.4927 85.5711 22.682C85.1658 21.865 84.9631 20.9245 84.9631 19.8605C84.9631 18.7902 85.1721 17.8497 85.5901 17.039C86.0081 16.222 86.594 15.5887 87.3476 15.139C88.1013 14.683 88.9816 14.455 89.9886 14.455C91.0146 14.455 91.9045 14.6862 92.6581 15.1485C93.4118 15.6108 93.9945 16.2473 94.4061 17.058C94.8178 17.8687 95.0236 18.8028 95.0236 19.8605C95.0236 20.9308 94.8146 21.8745 94.3966 22.6915C93.985 23.5022 93.4023 24.1387 92.6486 24.601C91.895 25.057 91.0083 25.285 89.9886 25.285ZM89.9886 23.4135C90.9703 23.4135 91.7018 23.0842 92.1831 22.4255C92.6708 21.7605 92.9146 20.9055 92.9146 19.8605C92.9146 18.7902 92.6676 17.9352 92.1736 17.2955C91.686 16.6495 90.9576 16.3265 89.9886 16.3265C89.3236 16.3265 88.7758 16.4785 88.3451 16.7825C87.9145 17.0802 87.5946 17.495 87.3856 18.027C87.1766 18.5527 87.0721 19.1638 87.0721 19.8605C87.0721 20.9372 87.3191 21.7985 87.8131 22.4445C88.3071 23.0905 89.0323 23.4135 89.9886 23.4135ZM104.312 25V19.9555C104.312 19.5565 104.277 19.148 104.208 18.73C104.144 18.3057 104.018 17.913 103.828 17.552C103.644 17.191 103.381 16.8997 103.039 16.678C102.704 16.4563 102.263 16.3455 101.719 16.3455C101.364 16.3455 101.028 16.4057 100.712 16.526C100.395 16.64 100.116 16.8268 99.8758 17.0865C99.6414 17.3462 99.4546 17.6882 99.3153 18.1125C99.1823 18.5368 99.1158 19.053 99.1158 19.661L97.8808 19.1955C97.8808 18.2645 98.0549 17.4443 98.4033 16.735C98.7516 16.0193 99.2519 15.462 99.9043 15.063C100.557 14.664 101.345 14.4645 102.27 14.4645C102.979 14.4645 103.574 14.5785 104.056 14.8065C104.537 15.0345 104.927 15.3353 105.224 15.709C105.528 16.0763 105.759 16.4785 105.918 16.9155C106.076 17.3525 106.184 17.78 106.241 18.198C106.298 18.616 106.326 18.9833 106.326 19.3V25H104.312ZM97.1018 25V14.74H98.8783V17.704H99.1158V25H97.1018ZM113.617 25.285C112.636 25.285 111.812 25.0475 111.147 24.5725C110.482 24.0912 109.979 23.442 109.637 22.625C109.295 21.808 109.124 20.8865 109.124 19.8605C109.124 18.8345 109.292 17.913 109.627 17.096C109.969 16.279 110.47 15.6362 111.128 15.1675C111.793 14.6925 112.61 14.455 113.579 14.455C114.542 14.455 115.372 14.6925 116.068 15.1675C116.771 15.6362 117.313 16.279 117.693 17.096C118.073 17.9067 118.263 18.8282 118.263 19.8605C118.263 20.8865 118.073 21.8112 117.693 22.6345C117.319 23.4515 116.784 24.0975 116.087 24.5725C115.397 25.0475 114.574 25.285 113.617 25.285ZM108.791 25V11.32H110.786V17.6185H110.558V25H108.791ZM113.342 23.4895C113.975 23.4895 114.498 23.328 114.909 23.005C115.327 22.682 115.638 22.2482 115.84 21.7035C116.049 21.1525 116.154 20.5382 116.154 19.8605C116.154 19.1892 116.049 18.5812 115.84 18.0365C115.638 17.4918 115.324 17.058 114.9 16.735C114.475 16.412 113.934 16.2505 113.275 16.2505C112.655 16.2505 112.142 16.4025 111.736 16.7065C111.337 17.0105 111.04 17.4348 110.843 17.9795C110.653 18.5242 110.558 19.1512 110.558 19.8605C110.558 20.5698 110.653 21.1968 110.843 21.7415C111.033 22.2862 111.334 22.7137 111.746 23.024C112.157 23.3343 112.689 23.4895 113.342 23.4895ZM120.55 13.0585V11.13H122.536V13.0585H120.55ZM120.55 25V14.74H122.536V25H120.55ZM125.389 25V14.74H127.156V17.229L126.909 16.906C127.035 16.5767 127.2 16.2758 127.403 16.0035C127.605 15.7248 127.84 15.4968 128.106 15.3195C128.365 15.1295 128.653 14.9838 128.97 14.8825C129.293 14.7748 129.622 14.7115 129.958 14.6925C130.294 14.6672 130.617 14.683 130.927 14.74V16.602C130.591 16.5133 130.218 16.488 129.806 16.526C129.401 16.564 129.027 16.6938 128.685 16.9155C128.362 17.1245 128.106 17.3778 127.916 17.6755C127.732 17.9732 127.599 18.3057 127.517 18.673C127.434 19.034 127.393 19.4172 127.393 19.8225V25H125.389ZM136.626 25.285C135.67 25.285 134.843 25.0475 134.147 24.5725C133.456 24.0975 132.921 23.4515 132.541 22.6345C132.168 21.8112 131.981 20.8865 131.981 19.8605C131.981 18.8282 132.171 17.9067 132.551 17.096C132.931 16.279 133.469 15.6362 134.166 15.1675C134.869 14.6925 135.702 14.455 136.664 14.455C137.633 14.455 138.447 14.6925 139.106 15.1675C139.771 15.6362 140.271 16.279 140.607 17.096C140.949 17.913 141.12 18.8345 141.12 19.8605C141.12 20.8865 140.949 21.808 140.607 22.625C140.265 23.442 139.761 24.0912 139.096 24.5725C138.431 25.0475 137.608 25.285 136.626 25.285ZM136.902 23.4895C137.554 23.4895 138.086 23.3343 138.498 23.024C138.909 22.7137 139.21 22.2862 139.4 21.7415C139.59 21.1968 139.685 20.5698 139.685 19.8605C139.685 19.1512 139.587 18.5242 139.391 17.9795C139.201 17.4348 138.903 17.0105 138.498 16.7065C138.099 16.4025 137.589 16.2505 136.968 16.2505C136.31 16.2505 135.768 16.412 135.344 16.735C134.919 17.058 134.603 17.4918 134.394 18.0365C134.191 18.5812 134.09 19.1892 134.09 19.8605C134.09 20.5382 134.191 21.1525 134.394 21.7035C134.603 22.2482 134.913 22.682 135.325 23.005C135.743 23.328 136.268 23.4895 136.902 23.4895ZM139.685 25V17.6185H139.457V11.32H141.452V25H139.685Z" fill="#192636"/>
</svg>
